<svg data-v-423bf9ae="" xmlns="http://www.w3.org/2000/svg" viewBox="0 0 503 90" class="iconLeft"><!----><!----><!----><g data-v-423bf9ae="" id="8a249089-2dd0-49e5-8564-998f9d60d88d" fill="white" transform="matrix(5.940593835033989,0,0,5.940593835033989,113.2822616364877,-4.2475247974197785)"><path d="M7.17 9.70C7.17 7.73 5.85 6.36 3.92 6.36C1.94 6.36 0.51 7.89 0.51 9.84C0.51 11.80 1.93 13.31 4.10 13.31C5.24 13.31 6.20 12.92 6.80 12.25L5.82 11.46C5.40 11.94 4.83 12.19 4.08 12.19C2.84 12.19 2.10 11.33 2.00 10.15L7.17 10.15ZM3.92 7.50C4.96 7.50 5.63 8.12 5.78 9.17L2.06 9.17C2.26 8.17 2.95 7.50 3.92 7.50ZM8.63 13.15L10.05 13.15L10.05 3.24L8.63 3.24ZM18.16 9.70C18.16 7.73 16.83 6.36 14.90 6.36C12.92 6.36 11.49 7.89 11.49 9.84C11.49 11.80 12.91 13.31 15.08 13.31C16.22 13.31 17.18 12.92 17.78 12.25L16.80 11.46C16.38 11.94 15.81 12.19 15.06 12.19C13.82 12.19 13.08 11.33 12.98 10.15L18.16 10.15ZM14.90 7.50C15.94 7.50 16.61 8.12 16.76 9.17L13.04 9.17C13.24 8.17 13.93 7.50 14.90 7.50ZM22.68 13.34C23.60 13.34 24.34 13.07 24.95 12.60L24.14 11.58C23.77 11.93 23.26 12.13 22.71 12.13C21.41 12.13 20.64 11.14 20.64 9.84C20.64 8.55 21.41 7.57 22.71 7.57C23.26 7.57 23.77 7.77 24.14 8.12L24.95 7.10C24.34 6.64 23.60 6.36 22.68 6.36C20.62 6.36 19.19 7.89 19.19 9.84C19.19 11.81 20.62 13.34 22.68 13.34ZM29.21 6.53L27.80 6.53L27.80 4.64L26.40 4.64L26.40 6.53L25.52 6.53L25.52 7.67L26.40 7.67L26.40 13.15L27.81 13.15L27.80 7.67L29.21 7.67ZM33.37 6.36C32.58 6.36 32.05 6.74 31.67 7.41L31.50 6.53L30.27 6.53L30.27 13.15L31.69 13.15L31.69 9.70C31.69 8.62 32.26 7.66 33.29 7.66C33.53 7.66 33.75 7.70 33.94 7.79L34.36 6.58C34.18 6.47 33.80 6.36 33.37 6.36ZM38.21 13.34C40.29 13.34 41.75 11.81 41.75 9.84C41.75 7.89 40.29 6.36 38.21 6.36C36.09 6.36 34.65 7.89 34.65 9.84C34.65 11.81 36.09 13.34 38.21 13.34ZM38.21 12.13C36.98 12.13 36.12 11.14 36.12 9.84C36.12 8.56 36.98 7.57 38.21 7.57C39.42 7.57 40.28 8.56 40.28 9.84C40.28 11.14 39.42 12.13 38.21 12.13ZM46.59 6.36C45.66 6.36 44.96 6.75 44.55 7.32L44.38 6.53L43.14 6.53L43.14 13.15L44.55 13.15L44.55 9.11C44.67 7.95 45.46 7.57 46.20 7.57C47.22 7.57 47.66 8.30 47.66 9.38L47.66 13.15L49.07 13.15L49.07 9.06C49.07 7 47.75 6.36 46.59 6.36ZM51.60 5.26C52.11 5.26 52.51 4.86 52.51 4.36C52.51 3.86 52.11 3.46 51.60 3.46C51.10 3.46 50.69 3.86 50.69 4.36C50.69 4.86 51.10 5.26 51.60 5.26ZM50.92 13.15L52.31 13.15L52.31 6.53L50.92 6.53ZM57.36 13.34C58.27 13.34 59.02 13.07 59.63 12.60L58.81 11.58C58.45 11.93 57.94 12.13 57.39 12.13C56.09 12.13 55.31 11.14 55.31 9.84C55.31 8.55 56.09 7.57 57.39 7.57C57.94 7.57 58.45 7.77 58.81 8.12L59.63 7.10C59.02 6.64 58.27 6.36 57.36 6.36C55.30 6.36 53.87 7.89 53.87 9.84C53.87 11.81 55.30 13.34 57.36 13.34ZM60.10 12.22C60.58 12.88 61.59 13.34 62.82 13.34C64.46 13.34 65.46 12.54 65.46 11.35C65.46 9.00 61.96 9.79 61.96 8.36C61.96 7.86 62.34 7.53 63.12 7.51C63.60 7.50 64.15 7.73 64.55 8.11L65.32 7.22C64.88 6.75 64.04 6.36 63.06 6.36C61.48 6.36 60.52 7.19 60.52 8.41C60.52 10.82 63.96 10.09 63.96 11.38C63.96 11.87 63.55 12.21 62.74 12.21C62.08 12.21 61.48 11.97 61.00 11.35Z"></path></g><!----><g data-v-423bf9ae="" id="e533c105-3d44-49ff-af5a-c1cbf16a1703" transform="matrix(1.0882706978893057,0,0,1.0882706978893057,-5.676775633839078,-13.112210911259353)" stroke="none" fill="white"><circle cx="14" cy="41.5" r="4"></circle><circle cx="73.1" cy="20.9" r="4"></circle><circle cx="85.8" cy="80.5" r="4"></circle><path d="M88.8 72.7V59.5c0-1.6-1.3-3-3-3H72.2v-10h7.5c1.1 2 3.2 3.4 5.6 3.4 3.5 0 6.4-2.9 6.4-6.4 0-3.5-2.9-6.4-6.4-6.4-2.6 0-4.8 1.5-5.8 3.7l-7.3-.1v-.3c0-3.6-2.9-6.5-6.5-6.5H55.1v-10h10.2c1.2 3.1 4.2 5.3 7.7 5.3 4.6 0 8.3-3.7 8.3-8.3s-3.7-8.3-8.3-8.3c-3.5 0-6.5 2.2-7.7 5.3H52.1c-1.6 0-3 1.3-3 3V34H36.7c-2.8 0-5.2 1.9-6.1 4.4h-8.7c-1.2-3.1-4.2-5.3-7.7-5.3-4.6 0-8.3 3.7-8.3 8.3s3.7 8.3 8.3 8.3c3.6 0 6.7-2.4 7.8-5.6l8.3.1v17.2h-3.5c-1.1-2-3.2-3.4-5.6-3.4-3.5 0-6.4 2.9-6.4 6.4 0 3.5 2.9 6.4 6.4 6.4 2.6 0 4.8-1.5 5.8-3.7h3.3v2.3c0 3.6 2.9 6.5 6.5 6.5h2.7v13c0 1.6 1.3 3 3 3H50c1.1 2 3.2 3.4 5.6 3.4 3.5 0 6.4-2.9 6.4-6.4 0-3.5-2.9-6.4-6.4-6.4-2.4 0-4.5 1.4-5.6 3.4h-4.5v-10h20.4c3.6 0 6.5-2.9 6.5-6.5v-6.9h10.7v10.2c-3.1 1.2-5.3 4.2-5.3 7.7 0 4.6 3.7 8.3 8.3 8.3 4.6 0 8.3-3.7 8.3-8.3-.3-3.5-2.5-6.5-5.6-7.7zM73.1 16.9c2.2 0 4 1.8 4 4s-1.8 4-4 4-4-1.8-4-4 1.8-4 4-4zM14 45.5c-2.2 0-4-1.8-4-4s1.8-4 4-4 4 1.8 4 4-1.7 4-4 4zm71.8 39c-2.2 0-4-1.8-4-4s1.8-4 4-4 4 1.8 4 4c.1 2.2-1.7 4-4 4z"></path></g><!----></svg>